<?xml version="1.0" encoding="utf-8"?>
<!-- Generator: Adobe Illustrator 25.2.1, SVG Export Plug-In . SVG Version: 6.00 Build 0)  -->
<svg version="1.1" xmlns="http://www.w3.org/2000/svg" xmlns:xlink="http://www.w3.org/1999/xlink" x="0px" y="0px"
	 viewBox="0 0 3000 3000" style="enable-background:new 0 0 3000 3000;" xml:space="preserve">
<style type="text/css">
	.st0{display:none;}
	.st1{display:none;fill:#0A0C10;}
	.st2{display:none;opacity:8.000000e-02;}
	.st3{display:inline;}
	.st4{fill:#00F5FF;}
	.st5{display:inline;fill:#00F5FF;}
	.st6{display:none;fill:#00F5FF;}
	.st7{display:inline;fill:#F8F9FA;}
	.st8{fill:#F8F9FA;}
	.st9{display:inline;fill:#0A0C10;}
	.st10{fill:#58F2FB;}
	.st11{font-family:'MyriadPro-Regular';}
	.st12{font-size:12px;}
	.st13{display:inline;fill:#58F2FB;}
	.st14{fill:#FFFFFF;}
</style>
<g id="Camada_1" class="st0">
	
		<image style="display:inline;overflow:visible;" width="1264" height="842" xlink:href="../../Downloads/Gemini_Generated_Image_ooa34gooa34gooa3.png"  transform="matrix(5.3006 0 0 5.3006 -429 208)">
	</image>
</g>
<g id="Camada_9">
	<rect class="st1" width="3000" height="3000"/>
	<g class="st2">
		<g class="st3">
			<path class="st4" d="M794.9,1420.9c0,0,5,376.3,352,336.3c182-27,163-232,163-232s-11-201,173-334s523-159,563-218
				c23-36-30.6-60.4-30.6-60.4l-40-22.5l-25.9-15.7l-320.3-185.5c-79-45.6-172.3-44.6-251.3,1L922.5,954.1
				c-79,45.6-127.6,123.9-127.6,215.1l0,252.1"/>
		</g>
		<path class="st5" d="M2174.7,1012.6c-13.7-20.4-42.7-22.8-59.8-5.2c-21.4,22.2-50.5,48-90,93.8c-75,87-70,351-189.7,485.5
			c-119.7,134.5-376.3,146.5-376.3,146.5s47-219,280.3-420c-354.7,103-352.3,428-512.3,516s-339.5-41.2-376-56
			c-59-24-31.4,31.9-31.4,31.9l-0.6-0.9c21.6,48,56.6,84.4,103.7,111.6l192.5,111.2c18.6,11.7,74.8,54.8,74.8,148.2
			c0,78-49,134-19,166s105,42,174,5l743.5-430.4c79-45.6,127.6-129.9,127.6-221.1v-500.5C2216,1100.9,2196.8,1045.4,2174.7,1012.6z
			 M1109.2,2023.6c0,0,2.2,1.1,5.9,3.4L1109.2,2023.6z"/>
	</g>
	<path class="st6" d="M2112.4,972.8L1593.1,673c-57.9-33.5-129.3-33.5-187.3,0L886.6,972.8c-57.9,33.5-93.6,95.3-93.6,162.2v599.5
		c0,66.9,35.7,128.7,93.6,162.2l183.3,105.8c31.8,19.3,120.8,80.3,119.5,157.9c-2,116.6-71.7,162.9,9,199.2
		c80.6,36.3,528.2-240.2,528.2-240.2l0,0l385.8-222.8c57.9-33.5,93.6-95.3,93.6-162.2V1135C2206,1068.1,2170.3,1006.3,2112.4,972.8z
		"/>
	<path class="st1" d="M2114.9,1084.7c-88.1,94.7-212.4,81.9-275.2,67.3c-16.6-3.9-32.9-9.2-48.7-15.6
		c-45.2-18.3-253.6-90.1-488.5,32.9c-265.7,139.2-529.6,615-529.6,615c-63.9,102.8-79.9,200.5-79.9,200.5s19.6-32.7,182.6-83.6
		s324.1,57.5,635.8,0.7s474.1-472.8,474.1-472.8s-317-56.4-701.8,186.4c235-409.4,793.8-332.7,912.9-435.9l47.3-51.7l-68-185
		l-161-26C2015,917,2191.3,1008.3,2114.9,1084.7z"/>
	
		<image style="display:none;overflow:visible;opacity:0.52;" width="1536" height="1024" xlink:href="../../Downloads/ChatGPT Image 11 de abr. de 2026, 03_57_03.png"  transform="matrix(4.2137 0 0 4.2137 -1693 -701)">
	</image>
	<g class="st0">
		<path class="st7" d="M337.2,2127.6l62.7-0.3c7.3,24.1,33.3,36.2,81.9,36.2c22.2,0,39.3-3.1,51.2-9.3c11.9-6.2,17.9-13.8,17.9-23
			c0-6.6-2.7-12.8-8.1-18.4c-5.4-5.7-17-10.1-34.8-13.3l-66.3-12.2c-22.7-4.2-39.5-8.9-50.3-14.2c-10.5-5-19.5-12.7-26.1-22.3
			c-6.3-9-9.8-19.8-9.8-30.8c0-21.7,11.5-39.2,34.6-52.3c23-13.1,52.5-19.7,88.4-19.7c29.8,0,56.5,4.6,79.9,13.7
			c23.5,9.2,38.4,32.9,44.9,49.6l-61.4-0.5c-9.2-18.4-28.5-27.6-62.1-27.6c-19.5,0-34.4,2.8-44.6,8.5c-10.3,5.7-15.4,12.9-15.4,21.7
			c0,13.9,16.1,23.6,48.3,29.2l59,10.3c35.7,6.3,59.7,15.6,71.9,27.9c12.2,12.3,18.3,25.9,18.3,40.7c0,23.9-12.8,42.7-38.5,56.4
			c-25.7,13.7-58.9,20.6-99.8,20.6c-34.4,0-64.5-5-90.3-15.1C362.8,2173.6,345.6,2149,337.2,2127.6z"/>
		<path class="st7" d="M899.6,2195.1h-37c-16.2,0-29.4-13.2-29.4-29.4v-73.3l-104.1-123.8c-3.6-4.3-3.1-10.7,1.2-14.4
			c1.8-1.5,4.2-2.4,6.6-2.4h53.8l82.3,100.3l78.8-100.3h60l-112.3,140.6V2195.1z"/>
		<path class="st7" d="M1383.6,2195.1h-60.8l-131.6-155.4l-9.9-11.6c-2-2.4-5.2-6.1-9.4-11.2v178.2h-50.3v-193.4
			c0-27.5,22.3-49.7,49.7-49.7l0,0c12.3,0,23.9,5.4,31.8,14.7l109.1,128.5c1,1.2,8.4,9.9,22.1,26.2v-169.4h49.3L1383.6,2195.1z"/>
		<path class="st7" d="M2124.7,2195.1h-213.5v-243.2h65.8v203.5h147.6V2195.1z"/>
		<path class="st7" d="M2296.8,2195.1h-62.5v-210.6c0-18,14.6-32.6,32.6-32.6c0,0,0,0,0,0h29.8L2296.8,2195.1z"/>
		<path class="st7" d="M2662.8,2157.3v37.8h-256.4v-9.1c0-16.3,6.6-31.9,18.2-43.3l159.4-156.1h-130.4c-19.2,0-34.7-15.6-34.7-34.7
			h238.9v34.7l-175.6,170.7H2662.8z"/>
		<path class="st7" d="M1639.8,1993.6l50.6,108.5H1621l-14.5,35.1h100.7l27.7,57.9h66.8l-116.4-243.2h-47.8
			c-17.8,0-34.1,10.3-41.7,26.4l-102.6,216.8h53.4L1639.8,1993.6z"/>
	</g>
	<path class="st6" d="M2048.4,344c-120.2-1.7-218.2,95.3-218.2,215.1c0,2,0,4,0.1,5.9c-4.5,38.9-29.5,146.8-167.8,209.2
		c-219.2,98.8-514.9,228.7-514.9,228.7s-16.6,7.9-40.9,14.5c-41.7,11.2-85.9,6.8-125.3-10.8c-2.9-1.3-5.8-2.5-8.7-3.6
		c0,0-0.1,0-0.1-0.1c0,0,0,0,0,0c-21.9-8.3-45.8-12.3-70.9-10.9c-87.3,4.9-157.7,75.8-161.9,163.2c-4.8,98.9,74,180.6,171.8,180.6
		c24.1,0,47-5,67.8-13.9l0,0c91.8-44.3,371.7,68.3,371.7,68.3s127,42.3,125,96c-2.1,55.8-106.8,89.8-189,130.1
		c-38.6,18.9-103.9,9.5-132.6,4c-4.6-1.3-9.3-2.3-14.1-3c-0.1,0-0.2,0-0.2,0s0,0,0,0c-4.7-0.7-9.5-1-14.4-1
		c-59,0-106.6,49-104.2,108.5c2.1,54.3,46.6,98.3,100.9,100c51.6,1.6,95.2-34.3,105.4-82.6c0.1,0,0.2,0,0.4,0
		c16.5-62,110.3-111.9,200.4-152.9c68.2-31,140.4-4.3,140.4-4.3s0,0,0,0c16.3,5.4,34,7.6,52.5,5.9c64.1-5.9,114.4-59.2,116.9-123.5
		c2.8-73.6-56-134.1-129-134.1c-24.5,0-47.4,6.8-66.9,18.6c0,0,0,0,0,0c0,0,0,0,0,0c-3.9,2.3-7.6,4.9-11.2,7.6
		c-54,31.3-129.5,2.5-129.5,2.5s-123.3-45-229.3-84.7c-77.2-28.9-88-81.8-89-103.8c0.1,0.2,0.2,0.3,0.2,0.3s-0.1-0.4-0.2-1.1
		c0.1-2.6,0.2-5.2,0.2-7.8c3.6-22.2,35-85.9,252-187.1c267.8-124.8,503.3-266.5,622.6-222.3c26.7,11.8,56.2,18.4,87.2,18.4
		c119.8,0,216.8-98,215.1-218.2C2258.8,440.2,2164.3,345.6,2048.4,344z"/>
</g>
<g id="Camada_10">
	<g>
		<g>
			<path class="st8" d="M788.2,1521.6l58.4-0.2c6.8,22.4,31,33.7,76.2,33.7c20.7,0,36.5-2.9,47.7-8.6c11.1-5.7,16.7-12.9,16.7-21.4
				c0-6.2-2.5-11.9-7.6-17.2c-5-5.3-15.8-9.4-32.4-12.3l-61.7-11.3c-21.1-3.9-36.7-8.3-46.8-13.2c-9.8-4.7-18.2-11.8-24.2-20.8
				c-5.9-8.4-9.1-18.4-9.1-28.7c0-20.2,10.7-36.5,32.2-48.7c21.4-12.2,48.9-18.3,82.3-18.3c27.8,0,52.5,4.3,74.4,12.8
				c21.8,8.5,35.8,30.6,41.7,46.2l-57.1-0.4c-8.5-17.1-26.6-25.7-57.8-25.7c-18.1,0-32,2.7-41.5,8c-9.5,5.3-14.3,12-14.3,20.2
				c0,12.9,15,22,44.9,27.2l54.9,9.6c33.3,5.9,55.6,14.5,66.9,25.9c11.4,11.4,17,24.1,17,37.9c0,22.2-11.9,39.7-35.8,52.5
				c-23.9,12.8-54.9,19.2-92.9,19.2c-32,0-60-4.7-84.1-14.1C812,1564.5,796,1541.6,788.2,1521.6z"/>
			<path class="st8" d="M1311.7,1584.4h-34.4c-15.1,0-27.3-12.2-27.3-27.3v-68.2l-96.9-115.2c-3.4-4-2.9-10,1.2-13.4
				c1.7-1.4,3.9-2.2,6.1-2.2h50.1l76.6,93.4l73.3-93.4h55.8l-104.5,130.8V1584.4z"/>
			<path class="st8" d="M1762.1,1584.4h-56.6L1583,1439.8l-9.3-10.8c-1.9-2.2-4.8-5.7-8.7-10.5v165.8h-46.8v-180
				c0-25.6,20.7-46.3,46.3-46.3l0,0c11.4,0,22.2,5,29.6,13.7l101.5,119.6c0.9,1.1,7.8,9.2,20.6,24.4v-157.7h45.9L1762.1,1584.4z"/>
			<path class="st8" d="M2452,1584.4h-198.7v-226.3h61.3v189.4H2452V1584.4z"/>
			<path class="st8" d="M2612.1,1584.4h-58.2v-196c0-16.8,13.6-30.4,30.3-30.4c0,0,0,0,0,0h27.8L2612.1,1584.4z"/>
			<path class="st8" d="M2952.8,1549.3v35.2h-238.7v-8.5c0-15.2,6.1-29.7,17-40.3l148.4-145.3H2758c-17.9,0-32.3-14.5-32.3-32.3
				H2948v32.3l-163.4,158.9H2952.8z"/>
			<path class="st8" d="M2000.6,1396.9l47.1,101h-64.6l-13.5,32.7h93.7l25.8,53.9h62.2l-108.3-226.3h-44.5
				c-16.6,0-31.7,9.6-38.8,24.6l-95.5,201.8h49.7L2000.6,1396.9z"/>
		</g>
		<path class="st4" d="M572.4,1149.2c-48.2-0.7-87.5,38.2-87.5,86.3c0,0.8,0,1.6,0,2.4c-1.8,15.6-11.8,58.9-67.3,83.9
			c-87.9,39.6-206.6,91.7-206.6,91.7s-6.7,3.2-16.4,5.8c-16.7,4.5-34.4,2.7-50.3-4.3c-1.2-0.5-2.3-1-3.5-1.4c0,0,0,0,0,0
			c0,0,0,0,0,0c-8.8-3.3-18.4-4.9-28.5-4.4c-35,2-63.3,30.4-65,65.5c-1.9,39.7,29.7,72.5,68.9,72.5c9.7,0,18.9-2,27.2-5.6l0,0
			c36.8-17.8,149.1,27.4,149.1,27.4s50.9,17,50.1,38.5c-0.8,22.4-42.8,36-75.8,52.2c-15.5,7.6-41.7,3.8-53.2,1.6
			c-1.8-0.5-3.7-0.9-5.7-1.2c0,0-0.1,0-0.1,0s0,0,0,0c-1.9-0.3-3.8-0.4-5.8-0.4c-23.7,0-42.8,19.7-41.8,43.5
			c0.9,21.8,18.7,39.5,40.5,40.1c20.7,0.6,38.2-13.8,42.3-33.1c0.1,0,0.1,0,0.1,0c6.6-24.9,44.2-44.9,80.4-61.3
			c27.3-12.4,56.3-1.7,56.3-1.7s0,0,0,0c6.5,2.2,13.7,3.1,21.1,2.4c25.7-2.4,45.9-23.8,46.9-49.6c1.1-29.5-22.5-53.8-51.8-53.8
			c-9.8,0-19,2.7-26.8,7.5c0,0,0,0,0,0c0,0,0,0,0,0c-1.6,0.9-3,2-4.5,3.1c-21.6,12.6-52,1-52,1s-49.5-18-92-34
			c-31-11.6-35.3-32.8-35.7-41.6c0.1,0.1,0.1,0.1,0.1,0.1s-0.1-0.2-0.1-0.5c0.1-1,0.1-2.1,0.1-3.1c1.4-8.9,14-34.4,101.1-75
			c107.4-50.1,201.9-106.9,249.8-89.2c10.7,4.7,22.5,7.4,35,7.4c48.1,0,87-39.3,86.3-87.5C656.8,1187.7,618.8,1149.8,572.4,1149.2z"
			/>
	</g>
</g>
<g id="Camada_11" class="st0">
	<g class="st3">
		<path class="st8" d="M337.2,1554.2l62.7-0.3c7.3,24.1,33.3,36.2,81.9,36.2c22.2,0,39.3-3.1,51.2-9.3c11.9-6.2,17.9-13.8,17.9-23
			c0-6.6-2.7-12.8-8.1-18.4c-5.4-5.7-17-10.1-34.8-13.3l-66.3-12.2c-22.7-4.2-39.5-8.9-50.3-14.2c-10.5-5-19.5-12.7-26.1-22.3
			c-6.3-9-9.8-19.8-9.8-30.8c0-21.7,11.5-39.2,34.6-52.3c23-13.1,52.5-19.7,88.4-19.7c29.8,0,56.5,4.6,79.9,13.7
			c23.5,9.2,38.4,32.9,44.9,49.6l-61.4-0.5c-9.2-18.4-28.5-27.6-62.1-27.6c-19.5,0-34.4,2.8-44.6,8.5c-10.3,5.7-15.4,12.9-15.4,21.7
			c0,13.9,16.1,23.6,48.3,29.2l59,10.3c35.7,6.3,59.7,15.6,71.9,27.9c12.2,12.3,18.3,25.9,18.3,40.7c0,23.9-12.8,42.7-38.5,56.4
			c-25.7,13.7-58.9,20.6-99.8,20.6c-34.4,0-64.5-5-90.3-15.1C362.8,1600.1,345.6,1575.5,337.2,1554.2z"/>
		<path class="st8" d="M899.6,1621.6h-37c-16.2,0-29.4-13.2-29.4-29.4V1519l-104.1-123.8c-3.6-4.3-3.1-10.7,1.2-14.4
			c1.8-1.5,4.2-2.4,6.6-2.4h53.8l82.3,100.3l78.8-100.3h60L899.6,1519V1621.6z"/>
		<path class="st8" d="M1383.6,1621.6h-60.8l-131.6-155.4l-9.9-11.6c-2-2.4-5.2-6.1-9.4-11.2v178.2h-50.3v-193.4
			c0-27.5,22.3-49.7,49.7-49.7l0,0c12.3,0,23.9,5.4,31.8,14.7l109.1,128.5c1,1.2,8.4,9.9,22.1,26.2v-169.4h49.3L1383.6,1621.6z"/>
		<path class="st8" d="M2124.7,1621.6h-213.5v-243.2h65.8v203.5h147.6V1621.6z"/>
		<path class="st8" d="M2296.8,1621.6h-62.5V1411c0-18,14.6-32.6,32.6-32.6c0,0,0,0,0,0h29.8L2296.8,1621.6z"/>
		<path class="st8" d="M2662.8,1583.8v37.8h-256.4v-9.1c0-16.3,6.6-31.9,18.2-43.3l159.4-156.1h-130.4c-19.2,0-34.7-15.6-34.7-34.7
			h238.9v34.7l-175.6,170.7H2662.8z"/>
		<path class="st8" d="M1639.8,1420.1l50.6,108.5H1621l-14.5,35.1h100.7l27.7,57.9h66.8l-116.4-243.2h-47.8
			c-17.8,0-34.1,10.3-41.7,26.4l-102.6,216.8h53.4L1639.8,1420.1z"/>
	</g>
</g>
<g id="Camada_7" class="st0">
	<rect class="st9" width="3000" height="3000"/>
	
		<image style="display:inline;overflow:visible;" width="1536" height="1024" xlink:href="../../Downloads/ChatGPT Image 22 de mar. de 2026, 22_39_48.png"  transform="matrix(5.4238 0 0 5.4238 -2666 0)">
	</image>
	<g class="st3">
		<path class="st10" d="M892.5,1465.5C912,1016,1036.8,858.3,1128,786c227-180,700-99,811-93c-29,62-125,104-235,100
			c-735-26.7-723,583-811.1,672.5"/>
	</g>
	<text transform="matrix(1 0 0 1 1500 1500)" class="st3 st11 st12">645653</text>
	<path class="st13" d="M2168,606c-61.3,0-111,49.7-111,111c0,0,0,0.1,0,0.1c-96.3,20.1-188.9,130.9-240.3,227.6
		c-83.5,157.2-194.4,559.6-653.7,546.2c0,0-30-327,337-548c-639,153-240,594-896.5,711.5l-0.2,0.4c67.5,15.4,716.7,120.1,989.7-89.9
		c356.1-273.9,238.3-688.9,472.8-804.7c16.9,39.8,56.3,67.7,102.2,67.7c61.3,0,111-49.7,111-111S2229.3,606,2168,606z"/>
</g>
<g id="logo__x2B__nome" class="st0">
	<rect class="st9" width="3000" height="3000"/>
	<g class="st3">
		<path class="st4" d="M789.5,1131.7c0,0,5,376.3,352,336.3c182-27,163-232,163-232s-11-201,173-334s523-159,563-218
			c23-36-30.6-66.4-30.6-66.4l-56-33.5l2.1,1.3l-328.3-189.5c-79-45.6-176.3-45.6-255.3,0L917.2,658.8
			c-79,45.6-127.6,129.9-127.6,221.1l0,252.1"/>
		<path class="st4" d="M1627.7,1874.5L1331.5,2035c-69,37-136,49-166,17s19-88,19-166c0-112-80.7-151.6-80.7-151.6l18,10.4
			l-204.6-118.1c-47.1-27.2-82-63.7-103.7-111.6l0.6,0.9c0,0-27.6-55.9,31.4-31.9c36.5,14.8,216,144,376,56s157.7-413,512.3-516
			c-233.3,201-280.3,420-280.3,420s256.7-12.1,376.3-146.5C1949.5,1163,1944.5,899,2019.5,812c86.1-99.8,122.4-104.8,138.9-183.6
			c0.7-3.4,1.2-6.8,1.5-10.2l0.6-6.1c-0.1-2.5,0,2.6,0,0c0-124,97.3-225.3,219.7-231.7c137.1-7.2,251.1,106.9,244,244
			c-6.4,122.4-107.7,219.7-231.7,219.7c-38.5,0-68-5.4-100-22l0,0c-85-37-82.5,40.4-82.5,40.4l-2.6-22.8c2.1,13.2,3.2,26.7,3.2,40.3
			v525.7c0,91.2-48.7,175.5-127.6,221.1L1627.7,1874.5c-13.2,7.5-15.2,8.5-37.8,20.9"/>
	</g>
	<g class="st3">
		<path class="st8" d="M352.2,2327l62.7-0.3c7.3,24.1,33.3,36.2,81.9,36.2c22.2,0,39.3-3.1,51.2-9.3c11.9-6.2,17.9-13.8,17.9-23
			c0-6.6-2.7-12.8-8.1-18.4c-5.4-5.7-17-10.1-34.8-13.3l-66.3-12.2c-22.7-4.2-39.5-8.9-50.3-14.2c-10.5-5-19.5-12.7-26.1-22.3
			c-6.3-9-9.8-19.8-9.8-30.8c0-21.7,11.5-39.2,34.6-52.3c23-13.1,52.5-19.7,88.4-19.7c29.8,0,56.5,4.6,79.9,13.7
			c23.5,9.2,38.4,32.9,44.9,49.6l-61.4-0.5c-9.2-18.4-28.5-27.6-62.1-27.6c-19.5,0-34.4,2.8-44.6,8.5c-10.3,5.7-15.4,12.9-15.4,21.7
			c0,13.9,16.1,23.6,48.3,29.2l59,10.3c35.7,6.3,59.7,15.6,71.9,27.9c12.2,12.3,18.3,25.9,18.3,40.7c0,23.9-12.8,42.7-38.5,56.4
			c-25.7,13.7-58.9,20.6-99.8,20.6c-34.4,0-64.5-5-90.3-15.1C377.8,2373,360.6,2348.4,352.2,2327z"/>
		<path class="st8" d="M884.6,2394.4h-37c-16.2,0-29.4-13.2-29.4-29.4v-73.3L714.2,2168c-3.6-4.3-3.1-10.7,1.2-14.4
			c1.8-1.5,4.2-2.4,6.6-2.4h53.8l82.3,100.3l78.8-100.3h60l-112.3,140.6V2394.4z"/>
		<path class="st8" d="M1358.1,2394.4h-60.8l-131.6-155.4l-9.9-11.6c-2-2.4-5.2-6.1-9.4-11.2v178.2H1096V2201
			c0-27.5,22.3-49.7,49.7-49.7l0,0c12.3,0,23.9,5.4,31.8,14.7l109.1,128.5c1,1.2,8.4,9.9,22.1,26.2v-169.4h49.3L1358.1,2394.4z"/>
		<path class="st8" d="M2098,2394.4h-213.5v-243.2h65.8v203.5H2098V2394.4z"/>
		<path class="st8" d="M2274.7,2394.4h-62.5v-210.6c0-18,14.6-32.6,32.6-32.6c0,0,0,0,0,0h29.8L2274.7,2394.4z"/>
		<path class="st8" d="M2647.8,2356.7v37.8h-256.4v-9.1c0-16.3,6.6-31.9,18.2-43.3L2569,2186h-130.4c-19.2,0-34.7-15.6-34.7-34.7
			h238.9v34.7l-175.6,170.7H2647.8z"/>
		<path class="st8" d="M1612.8,2192.9l50.6,108.5H1594l-14.5,35.1h100.7l27.7,57.9h66.8l-116.4-243.2h-47.8
			c-17.8,0-34.1,10.3-41.7,26.4l-102.6,216.8h53.4L1612.8,2192.9z"/>
	</g>
</g>
<g id="só_logo" class="st0">
	<rect class="st9" width="3000" height="3000"/>
	<g class="st3">
		<path class="st4" d="M794.9,1420.9c0,0,5,376.3,352,336.3c182-27,163-232,163-232s-11-201,173-334s523-159,563-218
			c23-36-30.6-60.4-30.6-60.4l-40-22.5l-25.9-15.7l-320.3-185.5c-79-45.6-172.3-44.6-251.3,1L922.5,954.1
			c-79,45.6-127.6,123.9-127.6,215.1l0,252.1"/>
		<path class="st4" d="M1344.9,2346.3c-69,37-144,27-174-5s19-88,19-166c0-112-80.7-151.6-80.7-151.6l18,10.4l-204.6-118.1
			c-47.1-27.2-82-63.7-103.7-111.6l0.6,0.9c0,0-27.6-55.9,31.4-31.9c36.5,14.8,216,144,376,56s157.7-413,512.3-516
			c-233.3,201-280.3,420-280.3,420s256.7-12.1,376.3-146.5c119.7-134.5,114.6-398.5,189.7-485.5c86.1-99.8,122.4-104.8,138.9-183.6
			c0.7-3.4,1.2-6.8,1.5-10.2l0.6-6.1c-0.1-2.5,0,2.6,0,0c0-128.1,103.9-232,232-232c127.8,0,232,104.2,232,232
			c0,128.1-103.9,232-232,232c-38.5,0-68-5.4-100-22l0,0c-85-37-82.5,40.4-82.5,40.4l-2.6-22.8c2.1,13.2,3.2,26.7,3.2,40.3v525.7
			c0,91.2-48.7,175.5-127.6,221.1"/>
	</g>
</g>
<g id="prototipo" class="st0">
	<rect class="st9" width="3000" height="3000"/>
	<g class="st3">
		<path class="st4" d="M794.9,1420.9c0,0,5,376.3,352,336.3c182-27,163-232,163-232s-11-201,173-334s523-159,563-218
			c23-36-30.6-60.4-30.6-60.4l-40-22.5l-25.9-15.7l-320.3-185.5c-79-45.6-172.3-44.6-251.3,1L922.5,954.1
			c-79,45.6-127.6,123.9-127.6,215.1l0,252.1"/>
	</g>
	<path class="st5" d="M2174.7,1012.6c-13.7-20.4-42.7-22.8-59.8-5.2c-21.4,22.2-50.5,48-90,93.8c-75,87-70,351-189.7,485.5
		c-119.7,134.5-376.3,146.5-376.3,146.5s47-219,280.3-420c-354.7,103-352.3,428-512.3,516s-339.5-41.2-376-56
		c-59-24-31.4,31.9-31.4,31.9l-0.6-0.9c21.6,48,56.6,84.4,103.7,111.6l192.5,111.2c18.6,11.7,74.8,54.8,74.8,148.2
		c0,78-49,134-19,166s105,42,174,5l743.5-430.4c79-45.6,127.6-129.9,127.6-221.1v-500.5C2216,1100.9,2196.8,1045.4,2174.7,1012.6z
		 M1109.2,2023.6c0,0,2.2,1.1,5.9,3.4L1109.2,2023.6z"/>
	<g>
		<circle class="st9" cx="1500" cy="1897" r="93"/>
		<path class="st9" d="M1161,1854c0,0,216-101,300,52l26-48c5.9-1.6-73-137-279-69L1161,1854"/>
	</g>
</g>
<g id="só_nome" class="st0">
	<rect class="st9" width="3000" height="3000"/>
	<g class="st3">
		<path class="st8" d="M352.2,1554.2l62.7-0.3c7.3,24.1,33.3,36.2,81.9,36.2c22.2,0,39.3-3.1,51.2-9.3c11.9-6.2,17.9-13.8,17.9-23
			c0-6.6-2.7-12.8-8.1-18.4c-5.4-5.7-17-10.1-34.8-13.3l-66.3-12.2c-22.7-4.2-39.5-8.9-50.3-14.2c-10.5-5-19.5-12.7-26.1-22.3
			c-6.3-9-9.8-19.8-9.8-30.8c0-21.7,11.5-39.2,34.6-52.3c23-13.1,52.5-19.7,88.4-19.7c29.8,0,56.5,4.6,79.9,13.7
			c23.5,9.2,38.4,32.9,44.9,49.6l-61.4-0.5c-9.2-18.4-28.5-27.6-62.1-27.6c-19.5,0-34.4,2.8-44.6,8.5c-10.3,5.7-15.4,12.9-15.4,21.7
			c0,13.9,16.1,23.6,48.3,29.2l59,10.3c35.7,6.3,59.7,15.6,71.9,27.9c12.2,12.3,18.3,25.9,18.3,40.7c0,23.9-12.8,42.7-38.5,56.4
			c-25.7,13.7-58.9,20.6-99.8,20.6c-34.4,0-64.5-5-90.3-15.1C377.8,1600.1,360.6,1575.5,352.2,1554.2z"/>
		<path class="st8" d="M884.6,1621.6h-37c-16.2,0-29.4-13.2-29.4-29.4V1519l-104.1-123.8c-3.6-4.3-3.1-10.7,1.2-14.4
			c1.8-1.5,4.2-2.4,6.6-2.4h53.8l82.3,100.3l78.8-100.3h60L884.6,1519V1621.6z"/>
		<path class="st8" d="M1358.1,1621.6h-60.8l-131.6-155.4l-9.9-11.6c-2-2.4-5.2-6.1-9.4-11.2v178.2H1096v-193.4
			c0-27.5,22.3-49.7,49.7-49.7l0,0c12.3,0,23.9,5.4,31.8,14.7l109.1,128.5c1,1.2,8.4,9.9,22.1,26.2v-169.4h49.3L1358.1,1621.6z"/>
		<path class="st8" d="M2098,1621.6h-213.5v-243.2h65.8v203.5H2098V1621.6z"/>
		<path class="st8" d="M2274.7,1621.6h-62.5V1411c0-18,14.6-32.6,32.6-32.6c0,0,0,0,0,0h29.8L2274.7,1621.6z"/>
		<path class="st8" d="M2647.8,1583.8v37.8h-256.4v-9.1c0-16.3,6.6-31.9,18.2-43.3l159.4-156.1h-130.4c-19.2,0-34.7-15.6-34.7-34.7
			h238.9v34.7l-175.6,170.7H2647.8z"/>
		<path class="st8" d="M1612.8,1420.1l50.6,108.5H1594l-14.5,35.1h100.7l27.7,57.9h66.8l-116.4-243.2h-47.8
			c-17.8,0-34.1,10.3-41.7,26.4l-102.6,216.8h53.4L1612.8,1420.1z"/>
	</g>
</g>
<g id="so_logo_bw" class="st0">
	<rect class="st3" width="3000" height="3000"/>
	<g class="st3">
		<path class="st14" d="M794.9,1420.9c0,0,5,376.3,352,336.3c182-27,163-232,163-232s-11-201,173-334s523-159,563-218
			c23-36-30.6-60.4-30.6-60.4l-40-22.5l-25.9-15.7l-320.3-185.5c-79-45.6-172.3-44.6-251.3,1L922.5,954.1
			c-79,45.6-127.6,123.9-127.6,215.1l0,252.1"/>
		<path class="st14" d="M1344.9,2346.3c-69,37-144,27-174-5s19-88,19-166c0-112-80.7-151.6-80.7-151.6l18,10.4l-204.6-118.1
			c-47.1-27.2-82-63.7-103.7-111.6l0.6,0.9c0,0-27.6-55.9,31.4-31.9c36.5,14.8,216,144,376,56s157.7-413,512.3-516
			c-233.3,201-280.3,420-280.3,420s256.7-12.1,376.3-146.5c119.7-134.5,114.6-398.5,189.7-485.5c86.1-99.8,122.4-104.8,138.9-183.6
			c0.7-3.4,1.2-6.8,1.5-10.2l0.6-6.1c-0.1-2.5,0,2.6,0,0c0-128.1,103.9-232,232-232c127.8,0,232,104.2,232,232
			c0,128.1-103.9,232-232,232c-38.5,0-68-5.4-100-22l0,0c-85-37-82.5,40.4-82.5,40.4l-2.6-22.8c2.1,13.2,3.2,26.7,3.2,40.3v525.7
			c0,91.2-48.7,175.5-127.6,221.1"/>
	</g>
</g>
<g id="logo__x2B__nome_bw" class="st0">
	<rect class="st3" width="3000" height="3000"/>
	<g class="st3">
		<path class="st14" d="M789.5,1131.7c0,0,5,376.3,352,336.3c182-27,163-232,163-232s-11-201,173-334s523-159,563-218
			c23-36-30.6-66.4-30.6-66.4l-56-33.5l2.1,1.3l-328.3-189.5c-79-45.6-176.3-45.6-255.3,0L917.2,658.8
			c-79,45.6-127.6,129.9-127.6,221.1l0,252.1"/>
		<path class="st14" d="M1627.7,1874.5L1331.5,2035c-69,37-136,49-166,17s19-88,19-166c0-112-80.7-151.6-80.7-151.6l18,10.4
			l-204.6-118.1c-47.1-27.2-82-63.7-103.7-111.6l0.6,0.9c0,0-27.6-55.9,31.4-31.9c36.5,14.8,216,144,376,56s157.7-413,512.3-516
			c-233.3,201-280.3,420-280.3,420s256.7-12.1,376.3-146.5C1949.5,1163,1944.5,899,2019.5,812c86.1-99.8,122.4-104.8,138.9-183.6
			c0.7-3.4,1.2-6.8,1.5-10.2l0.6-6.1c-0.1-2.5,0,2.6,0,0c0-128.1,103.9-232,232-232c127.8,0,232,104.2,232,232
			c0,128.1-103.9,232-232,232c-38.5,0-68-5.4-100-22l0,0c-85-37-82.5,40.4-82.5,40.4l-2.6-22.8c2.1,13.2,3.2,26.7,3.2,40.3v525.7
			c0,91.2-48.7,175.5-127.6,221.1L1627.7,1874.5c-13.2,7.5-15.2,8.5-37.8,20.9"/>
	</g>
	<g class="st3">
		<path class="st14" d="M352.2,2327l62.7-0.3c7.3,24.1,33.3,36.2,81.9,36.2c22.2,0,39.3-3.1,51.2-9.3c11.9-6.2,17.9-13.8,17.9-23
			c0-6.6-2.7-12.8-8.1-18.4c-5.4-5.7-17-10.1-34.8-13.3l-66.3-12.2c-22.7-4.2-39.5-8.9-50.3-14.2c-10.5-5-19.5-12.7-26.1-22.3
			c-6.3-9-9.8-19.8-9.8-30.8c0-21.7,11.5-39.2,34.6-52.3c23-13.1,52.5-19.7,88.4-19.7c29.8,0,56.5,4.6,79.9,13.7
			c23.5,9.2,38.4,32.9,44.9,49.6l-61.4-0.5c-9.2-18.4-28.5-27.6-62.1-27.6c-19.5,0-34.4,2.8-44.6,8.5c-10.3,5.7-15.4,12.9-15.4,21.7
			c0,13.9,16.1,23.6,48.3,29.2l59,10.3c35.7,6.3,59.7,15.6,71.9,27.9c12.2,12.3,18.3,25.9,18.3,40.7c0,23.9-12.8,42.7-38.5,56.4
			c-25.7,13.7-58.9,20.6-99.8,20.6c-34.4,0-64.5-5-90.3-15.1C377.8,2373,360.6,2348.4,352.2,2327z"/>
		<path class="st14" d="M884.6,2394.4h-37c-16.2,0-29.4-13.2-29.4-29.4v-73.3L714.2,2168c-3.6-4.3-3.1-10.7,1.2-14.4
			c1.8-1.5,4.2-2.4,6.6-2.4h53.8l82.3,100.3l78.8-100.3h60l-112.3,140.6V2394.4z"/>
		<path class="st14" d="M1358.1,2394.4h-60.8l-131.6-155.4l-9.9-11.6c-2-2.4-5.2-6.1-9.4-11.2v178.2H1096V2201
			c0-27.5,22.3-49.7,49.7-49.7l0,0c12.3,0,23.9,5.4,31.8,14.7l109.1,128.5c1,1.2,8.4,9.9,22.1,26.2v-169.4h49.3L1358.1,2394.4z"/>
		<path class="st14" d="M2098,2394.4h-213.5v-243.2h65.8v203.5H2098V2394.4z"/>
		<path class="st14" d="M2274.7,2394.4h-62.5v-210.6c0-18,14.6-32.6,32.6-32.6c0,0,0,0,0,0h29.8L2274.7,2394.4z"/>
		<path class="st14" d="M2647.8,2356.7v37.8h-256.4v-9.1c0-16.3,6.6-31.9,18.2-43.3L2569,2186h-130.4c-19.2,0-34.7-15.6-34.7-34.7
			h238.9v34.7l-175.6,170.7H2647.8z"/>
		<path class="st14" d="M1612.8,2192.9l50.6,108.5H1594l-14.5,35.1h100.7l27.7,57.9h66.8l-116.4-243.2h-47.8
			c-17.8,0-34.1,10.3-41.7,26.4l-102.6,216.8h53.4L1612.8,2192.9z"/>
	</g>
</g>
</svg>
