<svg xmlns="http://www.w3.org/2000/svg" viewBox="0 0 27.36 27.43"><defs><style>.cls-1{fill-rule:evenodd;}</style></defs><g id="Camada_2" data-name="Camada 2"><g id="ELEMENTS"><path d="M0,27.43l2-7.34A13.53,13.53,0,0,1,13.81,0,13.55,13.55,0,1,1,7.37,25.45ZM7.74,22.7,8.2,23a11,11,0,1,0-5.37-9.43,10.92,10.92,0,0,0,1.6,5.69l.29.47-1.1,4.1Z"/><path class="cls-1" d="M18.85,15.43A2.29,2.29,0,0,0,16.91,15c-.5.21-.82,1-1.15,1.4a.48.48,0,0,1-.62.14,8.79,8.79,0,0,1-4.39-3.76.53.53,0,0,1,.07-.73,3,3,0,0,0,.79-1.3,2.76,2.76,0,0,0-.35-1.53c-.27-.57-.56-1.38-1.13-1.7a1.54,1.54,0,0,0-1.68.25,3.39,3.39,0,0,0-1.19,2.7,4.13,4.13,0,0,0,.11.86,7.1,7.1,0,0,0,.82,1.9c.27.45.55.89.86,1.31A13.38,13.38,0,0,0,12.78,18a11.55,11.55,0,0,0,2.33,1.1,5.13,5.13,0,0,0,2.7.43,3.29,3.29,0,0,0,2.46-1.83,1.57,1.57,0,0,0,.11-.93C20.24,16.12,19.37,15.74,18.85,15.43Z"/></g></g></svg>