<?xml version="1.0" encoding="utf-8"?>
<!-- Generator: Adobe Illustrator 25.2.1, SVG Export Plug-In . SVG Version: 6.00 Build 0)  -->
<svg version="1.1" xmlns="http://www.w3.org/2000/svg" xmlns:xlink="http://www.w3.org/1999/xlink" x="0px" y="0px"
	 viewBox="0 0 3000 3000" style="enable-background:new 0 0 3000 3000;" xml:space="preserve">
<style type="text/css">
	.st0{display:none;}
	.st1{fill:#0A0C10;}
	.st2{opacity:8.000000e-02;}
	.st3{display:inline;}
	.st4{fill:#00F5FF;}
	.st5{display:inline;fill:#00F5FF;}
	.st6{fill:#F8F9FA;}
	.st7{display:inline;fill:#0A0C10;}
	.st8{fill:#58F2FB;}
	.st9{font-family:'MyriadPro-Regular';}
	.st10{font-size:12px;}
	.st11{display:inline;fill:#58F2FB;}
	.st12{fill:#FFFFFF;}
</style>
<g id="Camada_1" class="st0">
	
		<image style="display:inline;overflow:visible;" width="1264" height="842" xlink:href="../../Downloads/Gemini_Generated_Image_ooa34gooa34gooa3.png"  transform="matrix(5.3006 0 0 5.3006 -429 208)">
	</image>
</g>
<g id="Camada_9" class="st0">
	<rect class="st1" width="3000" height="3000"/>
	<g class="st2">
		<g class="st3">
			<path class="st4" d="M794.9,1420.9c0,0,5,376.3,352,336.3c182-27,163-232,163-232s-11-201,173-334s523-159,563-218
				c23-36-30.6-60.4-30.6-60.4l-40-22.5l-25.9-15.7l-320.3-185.5c-79-45.6-172.3-44.6-251.3,1L922.5,954.1
				c-79,45.6-127.6,123.9-127.6,215.1l0,252.1"/>
		</g>
		<path class="st5" d="M2174.7,1012.6c-13.7-20.4-42.7-22.8-59.8-5.2c-21.4,22.2-50.5,48-90,93.8c-75,87-70,351-189.7,485.5
			c-119.7,134.5-376.3,146.5-376.3,146.5s47-219,280.3-420c-354.7,103-352.3,428-512.3,516s-339.5-41.2-376-56
			c-59-24-31.4,31.9-31.4,31.9l-0.6-0.9c21.6,48,56.6,84.4,103.7,111.6l192.5,111.2c18.6,11.7,74.8,54.8,74.8,148.2
			c0,78-49,134-19,166s105,42,174,5l743.5-430.4c79-45.6,127.6-129.9,127.6-221.1v-500.5C2216,1100.9,2196.8,1045.4,2174.7,1012.6z
			 M1109.2,2023.6c0,0,2.2,1.1,5.9,3.4L1109.2,2023.6z"/>
	</g>
	<path class="st4" d="M2112.4,972.8L1593.1,673c-57.9-33.5-129.3-33.5-187.3,0L886.6,972.8c-57.9,33.5-93.6,95.3-93.6,162.2v599.5
		c0,66.9,35.7,128.7,93.6,162.2l183.3,105.8c31.8,19.3,120.8,80.3,119.5,157.9c-2,116.6-71.7,162.9,9,199.2
		c80.6,36.3,528.2-240.2,528.2-240.2l0,0l385.8-222.8c57.9-33.5,93.6-95.3,93.6-162.2V1135C2206,1068.1,2170.3,1006.3,2112.4,972.8z
		"/>
	<path class="st1" d="M2114.9,1084.7c-88.1,94.7-212.4,81.9-275.2,67.3c-16.6-3.9-32.9-9.2-48.7-15.6
		c-45.2-18.3-253.6-90.1-488.5,32.9c-265.7,139.2-529.6,615-529.6,615c-63.9,102.8-79.9,200.5-79.9,200.5s19.6-32.7,182.6-83.6
		s324.1,57.5,635.8,0.7s474.1-472.8,474.1-472.8s-317-56.4-701.8,186.4c235-409.4,793.8-332.7,912.9-435.9l47.3-51.7l-68-185
		l-161-26C2015,917,2191.3,1008.3,2114.9,1084.7z"/>
	
		<image style="overflow:visible;opacity:0.52;" width="1536" height="1024" xlink:href="../../Downloads/ChatGPT Image 11 de abr. de 2026, 03_57_03.png"  transform="matrix(4.2137 0 0 4.2137 -1693 -701)">
	</image>
	<g class="st3">
		<path class="st6" d="M337.2,2127.6l62.7-0.3c7.3,24.1,33.3,36.2,81.9,36.2c22.2,0,39.3-3.1,51.2-9.3c11.9-6.2,17.9-13.8,17.9-23
			c0-6.6-2.7-12.8-8.1-18.4c-5.4-5.7-17-10.1-34.8-13.3l-66.3-12.2c-22.7-4.2-39.5-8.9-50.3-14.2c-10.5-5-19.5-12.7-26.1-22.3
			c-6.3-9-9.8-19.8-9.8-30.8c0-21.7,11.5-39.2,34.6-52.3c23-13.1,52.5-19.7,88.4-19.7c29.8,0,56.5,4.6,79.9,13.7
			c23.5,9.2,38.4,32.9,44.9,49.6l-61.4-0.5c-9.2-18.4-28.5-27.6-62.1-27.6c-19.5,0-34.4,2.8-44.6,8.5c-10.3,5.7-15.4,12.9-15.4,21.7
			c0,13.9,16.1,23.6,48.3,29.2l59,10.3c35.7,6.3,59.7,15.6,71.9,27.9c12.2,12.3,18.3,25.9,18.3,40.7c0,23.9-12.8,42.7-38.5,56.4
			c-25.7,13.7-58.9,20.6-99.8,20.6c-34.4,0-64.5-5-90.3-15.1C362.8,2173.6,345.6,2149,337.2,2127.6z"/>
		<path class="st6" d="M899.6,2195.1h-37c-16.2,0-29.4-13.2-29.4-29.4v-73.3l-104.1-123.8c-3.6-4.3-3.1-10.7,1.2-14.4
			c1.8-1.5,4.2-2.4,6.6-2.4h53.8l82.3,100.3l78.8-100.3h60l-112.3,140.6V2195.1z"/>
		<path class="st6" d="M1383.6,2195.1h-60.8l-131.6-155.4l-9.9-11.6c-2-2.4-5.2-6.1-9.4-11.2v178.2h-50.3v-193.4
			c0-27.5,22.3-49.7,49.7-49.7l0,0c12.3,0,23.9,5.4,31.8,14.7l109.1,128.5c1,1.2,8.4,9.9,22.1,26.2v-169.4h49.3L1383.6,2195.1z"/>
		<path class="st6" d="M2124.7,2195.1h-213.5v-243.2h65.8v203.5h147.6V2195.1z"/>
		<path class="st6" d="M2296.8,2195.1h-62.5v-210.6c0-18,14.6-32.6,32.6-32.6c0,0,0,0,0,0h29.8L2296.8,2195.1z"/>
		<path class="st6" d="M2662.8,2157.3v37.8h-256.4v-9.1c0-16.3,6.6-31.9,18.2-43.3l159.4-156.1h-130.4c-19.2,0-34.7-15.6-34.7-34.7
			h238.9v34.7l-175.6,170.7H2662.8z"/>
		<path class="st6" d="M1639.8,1993.6l50.6,108.5H1621l-14.5,35.1h100.7l27.7,57.9h66.8l-116.4-243.2h-47.8
			c-17.8,0-34.1,10.3-41.7,26.4l-102.6,216.8h53.4L1639.8,1993.6z"/>
	</g>
	<path class="st5" d="M2048.4,344c-120.2-1.7-218.2,95.3-218.2,215.1c0,2,0,4,0.1,5.9c-4.5,38.9-29.5,146.8-167.8,209.2
		c-219.2,98.8-514.9,228.7-514.9,228.7s-16.6,7.9-40.9,14.5c-41.7,11.2-85.9,6.8-125.3-10.8c-2.9-1.3-5.8-2.5-8.7-3.6
		c0,0-0.1,0-0.1-0.1c0,0,0,0,0,0c-21.9-8.3-45.8-12.3-70.9-10.9c-87.3,4.9-157.7,75.8-161.9,163.2c-4.8,98.9,74,180.6,171.8,180.6
		c24.1,0,47-5,67.8-13.9l0,0c91.8-44.3,371.7,68.3,371.7,68.3s127,42.3,125,96c-2.1,55.8-106.8,89.8-189,130.1
		c-38.6,18.9-103.9,9.5-132.6,4c-4.6-1.3-9.3-2.3-14.1-3c-0.1,0-0.2,0-0.2,0s0,0,0,0c-4.7-0.7-9.5-1-14.4-1
		c-59,0-106.6,49-104.2,108.5c2.1,54.3,46.6,98.3,100.9,100c51.6,1.6,95.2-34.3,105.4-82.6c0.1,0,0.2,0,0.4,0
		c16.5-62,110.3-111.9,200.4-152.9c68.2-31,140.4-4.3,140.4-4.3s0,0,0,0c16.3,5.4,34,7.6,52.5,5.9c64.1-5.9,114.4-59.2,116.9-123.5
		c2.8-73.6-56-134.1-129-134.1c-24.5,0-47.4,6.8-66.9,18.6c0,0,0,0,0,0c0,0,0,0,0,0c-3.9,2.3-7.6,4.9-11.2,7.6
		c-54,31.3-129.5,2.5-129.5,2.5s-123.3-45-229.3-84.7c-77.2-28.9-88-81.8-89-103.8c0.1,0.2,0.2,0.3,0.2,0.3s-0.1-0.4-0.2-1.1
		c0.1-2.6,0.2-5.2,0.2-7.8c3.6-22.2,35-85.9,252-187.1c267.8-124.8,503.3-266.5,622.6-222.3c26.7,11.8,56.2,18.4,87.2,18.4
		c119.8,0,216.8-98,215.1-218.2C2258.8,440.2,2164.3,345.6,2048.4,344z"/>
</g>
<g id="Camada_11">
	<path class="st4" d="M2516.1,128c-222.7-3.1-404.3,176.5-404.3,398.5c0,3.7,0.1,7.3,0.2,11c-8.4,72.1-54.7,272.1-310.9,387.6
		c-406.1,183.1-954,423.7-954,423.7s-30.8,14.7-75.8,26.8c-77.3,20.8-159.1,12.5-232.2-20c-5.3-2.4-10.7-4.6-16.2-6.7
		c0,0-0.1-0.1-0.1-0.1c0,0,0,0,0,0.1c-40.5-15.4-84.9-22.8-131.4-20.2c-161.8,9.1-292.2,140.5-300,302.4
		c-8.9,183.2,137.1,334.6,318.4,334.6c44.6,0,87.1-9.2,125.7-25.8l0,0c170.1-82.1,688.7,126.5,688.7,126.5s235.2,78.4,231.5,178
		c-3.8,103.3-197.9,166.5-350.2,241.1c-71.6,35.1-192.4,17.7-245.6,7.5c-8.5-2.4-17.2-4.3-26.1-5.5c-0.2,0-0.3-0.1-0.3-0.1s0,0,0,0
		c-8.7-1.2-17.7-1.9-26.7-1.9c-109.3,0-197.5,90.8-193.1,201.1c4,100.6,86.3,182.2,186.9,185.3c95.7,3,176.3-63.6,195.2-153
		c0.2,0,0.5,0,0.7,0c30.6-114.8,204.3-207.3,371.2-283.2c126.3-57.4,260.1-7.9,260.1-7.9s0,0,0,0c30.2,9.9,63,14.1,97.3,10.9
		c118.7-11,212-109.7,216.5-228.9c5.2-136.3-103.8-248.5-239-248.5c-45.4,0-87.8,12.6-123.9,34.5c0,0,0,0,0,0c0,0,0,0,0,0
		c-7.2,4.3-14.1,9.1-20.7,14.1c-100,58-240,4.7-240,4.7s-228.5-83.3-424.8-156.9c-143-53.6-163.1-151.5-165-192.3
		c0.3,0.3,0.4,0.5,0.4,0.5s-0.2-0.7-0.5-2.1c0.3-4.8,0.4-9.6,0.4-14.4c6.7-41.2,64.8-159.1,467-346.6
		c496.2-231.3,932.6-493.9,1153.5-411.9c49.4,21.9,104,34.1,161.5,34.1c222,0,401.6-181.5,398.5-404.3
		C2906,306.2,2730.8,131,2516.1,128z"/>
</g>
<g id="Camada_10" class="st0">
	<g class="st3">
		<path class="st6" d="M1026.2,1509.9l38.9-0.2c4.5,15,20.6,22.4,50.8,22.4c13.8,0,24.3-1.9,31.7-5.7c7.4-3.8,11.1-8.6,11.1-14.2
			c0-4.1-1.7-7.9-5-11.4s-10.6-6.3-21.6-8.2l-41.1-7.5c-14.1-2.6-24.5-5.5-31.2-8.8c-6.5-3.1-12.1-7.9-16.2-13.9
			c-3.9-5.6-6-12.3-6.1-19.1c0-13.5,7.1-24.3,21.4-32.4c14.3-8.1,32.6-12.2,54.8-12.2c18.5,0,35,2.8,49.6,8.5
			c14.6,5.7,23.8,20.4,27.8,30.8l-38-0.3c-5.7-11.4-17.7-17.1-38.5-17.1c-12.1,0-21.3,1.8-27.7,5.3c-6.4,3.5-9.5,8-9.5,13.5
			c0,8.6,10,14.7,29.9,18.1l36.6,6.4c22.2,3.9,37,9.7,44.6,17.3c7.6,7.6,11.3,16,11.4,25.2c0,14.8-8,26.5-23.9,35
			c-15.9,8.5-36.5,12.8-61.9,12.8c-21.3,0-40-3.1-56-9.4C1042.1,1538.4,1031.4,1523.1,1026.2,1509.9z"/>
		<path class="st6" d="M1374.9,1551.7H1352c-10.1,0-18.2-8.2-18.2-18.2V1488l-64.5-76.8c-2.2-2.7-1.9-6.7,0.8-8.9
			c1.1-1,2.6-1.5,4.1-1.5h33.4l51.1,62.2l48.8-62.2h37.2l-69.6,87.2V1551.7z"/>
		<path class="st6" d="M1675,1551.7h-37.7l-81.6-96.3l-6.2-7.2c-1.3-1.5-3.2-3.8-5.8-7v110.5h-31.2v-119.9c0-17,13.8-30.8,30.8-30.8
			l0,0c7.6,0,14.8,3.3,19.7,9.1l67.6,79.7c0.6,0.7,5.2,6.1,13.7,16.2v-105.1h30.6L1675,1551.7z"/>
		<path class="st6" d="M2134.6,1551.7h-132.4v-150.8h40.8v126.2h91.5V1551.7z"/>
		<path class="st6" d="M2241.3,1551.7h-38.8v-130.6c0-11.2,9-20.2,20.2-20.2c0,0,0,0,0,0h18.5L2241.3,1551.7z"/>
		<path class="st6" d="M2468.3,1528.3v23.4h-159v-5.6c0-10.1,4.1-19.8,11.3-26.9l98.9-96.8h-80.9c-11.9,0-21.5-9.6-21.5-21.5h148.1
			v21.5l-108.9,105.8H2468.3z"/>
		<path class="st6" d="M1833.9,1426.7l31.4,67.3h-43l-9,21.8h62.4l17.2,35.9h41.4l-72.2-150.8h-29.6c-11.1,0-21.1,6.4-25.8,16.4
			l-63.6,134.4h33.1L1833.9,1426.7z"/>
	</g>
	<path class="st5" d="M1452.1,939.8c-83.8-1.2-152.1,66.4-152.1,150c0,1.4,0,2.8,0.1,4.1c-3.1,27.1-20.6,102.4-117,145.9
		c-152.8,68.9-359,159.4-359,159.4s-11.6,5.5-28.5,10.1c-29.1,7.8-59.9,4.7-87.4-7.5c-2-0.9-4-1.7-6.1-2.5c0,0,0,0-0.1,0
		c0,0,0,0,0,0c-15.2-5.8-32-8.6-49.4-7.6c-60.9,3.4-110,52.9-112.9,113.8c-3.3,69,51.6,125.9,119.8,125.9c16.8,0,32.8-3.5,47.3-9.7
		l0,0c64-30.9,259.2,47.6,259.2,47.6s88.5,29.5,87.1,67c-1.4,38.9-74.5,62.6-131.8,90.7c-26.9,13.2-72.4,6.6-92.4,2.8
		c-3.2-0.9-6.5-1.6-9.8-2.1c-0.1,0-0.1,0-0.1,0s0,0,0,0c-3.3-0.5-6.6-0.7-10.1-0.7c-41.1,0-74.3,34.2-72.7,75.7
		c1.5,37.9,32.5,68.6,70.4,69.8c36,1.1,66.4-23.9,73.5-57.6c0.1,0,0.2,0,0.3,0c11.5-43.2,76.9-78,139.7-106.6
		c47.5-21.6,97.9-3,97.9-3s0,0,0,0c11.4,3.7,23.7,5.3,36.6,4.1c44.7-4.1,79.8-41.3,81.5-86.1c1.9-51.3-39.1-93.5-89.9-93.5
		c-17.1,0-33,4.8-46.6,13c0,0,0,0,0,0c0,0,0,0,0,0c-2.7,1.6-5.3,3.4-7.8,5.3c-37.6,21.8-90.3,1.8-90.3,1.8s-86-31.3-159.9-59
		c-53.8-20.2-61.4-57-62.1-72.4c0.1,0.1,0.2,0.2,0.2,0.2s-0.1-0.3-0.2-0.8c0.1-1.8,0.1-3.6,0.1-5.4c2.5-15.5,24.4-59.9,175.7-130.4
		c186.7-87,350.9-185.8,434.1-155c18.6,8.2,39.2,12.8,60.8,12.8c83.5,0,151.1-68.3,150-152.1
		C1598.9,1006.9,1532.9,940.9,1452.1,939.8z"/>
</g>
<g id="Camada_7" class="st0">
	<rect class="st7" width="3000" height="3000"/>
	
		<image style="display:inline;overflow:visible;" width="1536" height="1024" xlink:href="../../Downloads/ChatGPT Image 22 de mar. de 2026, 22_39_48.png"  transform="matrix(5.4238 0 0 5.4238 -2666 0)">
	</image>
	<g class="st3">
		<path class="st8" d="M892.5,1465.5C912,1016,1036.8,858.3,1128,786c227-180,700-99,811-93c-29,62-125,104-235,100
			c-735-26.7-723,583-811.1,672.5"/>
	</g>
	<text transform="matrix(1 0 0 1 1500 1500)" class="st3 st9 st10">645653</text>
	<path class="st11" d="M2168,606c-61.3,0-111,49.7-111,111c0,0,0,0.1,0,0.1c-96.3,20.1-188.9,130.9-240.3,227.6
		c-83.5,157.2-194.4,559.6-653.7,546.2c0,0-30-327,337-548c-639,153-240,594-896.5,711.5l-0.2,0.4c67.5,15.4,716.7,120.1,989.7-89.9
		c356.1-273.9,238.3-688.9,472.8-804.7c16.9,39.8,56.3,67.7,102.2,67.7c61.3,0,111-49.7,111-111S2229.3,606,2168,606z"/>
</g>
<g id="logo__x2B__nome" class="st0">
	<rect class="st7" width="3000" height="3000"/>
	<g class="st3">
		<path class="st4" d="M789.5,1131.7c0,0,5,376.3,352,336.3c182-27,163-232,163-232s-11-201,173-334s523-159,563-218
			c23-36-30.6-66.4-30.6-66.4l-56-33.5l2.1,1.3l-328.3-189.5c-79-45.6-176.3-45.6-255.3,0L917.2,658.8
			c-79,45.6-127.6,129.9-127.6,221.1l0,252.1"/>
		<path class="st4" d="M1627.7,1874.5L1331.5,2035c-69,37-136,49-166,17s19-88,19-166c0-112-80.7-151.6-80.7-151.6l18,10.4
			l-204.6-118.1c-47.1-27.2-82-63.7-103.7-111.6l0.6,0.9c0,0-27.6-55.9,31.4-31.9c36.5,14.8,216,144,376,56s157.7-413,512.3-516
			c-233.3,201-280.3,420-280.3,420s256.7-12.1,376.3-146.5C1949.5,1163,1944.5,899,2019.5,812c86.1-99.8,122.4-104.8,138.9-183.6
			c0.7-3.4,1.2-6.8,1.5-10.2l0.6-6.1c-0.1-2.5,0,2.6,0,0c0-124,97.3-225.3,219.7-231.7c137.1-7.2,251.1,106.9,244,244
			c-6.4,122.4-107.7,219.7-231.7,219.7c-38.5,0-68-5.4-100-22l0,0c-85-37-82.5,40.4-82.5,40.4l-2.6-22.8c2.1,13.2,3.2,26.7,3.2,40.3
			v525.7c0,91.2-48.7,175.5-127.6,221.1L1627.7,1874.5c-13.2,7.5-15.2,8.5-37.8,20.9"/>
	</g>
	<g class="st3">
		<path class="st6" d="M352.2,2327l62.7-0.3c7.3,24.1,33.3,36.2,81.9,36.2c22.2,0,39.3-3.1,51.2-9.3c11.9-6.2,17.9-13.8,17.9-23
			c0-6.6-2.7-12.8-8.1-18.4c-5.4-5.7-17-10.1-34.8-13.3l-66.3-12.2c-22.7-4.2-39.5-8.9-50.3-14.2c-10.5-5-19.5-12.7-26.1-22.3
			c-6.3-9-9.8-19.8-9.8-30.8c0-21.7,11.5-39.2,34.6-52.3c23-13.1,52.5-19.7,88.4-19.7c29.8,0,56.5,4.6,79.9,13.7
			c23.5,9.2,38.4,32.9,44.9,49.6l-61.4-0.5c-9.2-18.4-28.5-27.6-62.1-27.6c-19.5,0-34.4,2.8-44.6,8.5c-10.3,5.7-15.4,12.9-15.4,21.7
			c0,13.9,16.1,23.6,48.3,29.2l59,10.3c35.7,6.3,59.7,15.6,71.9,27.9c12.2,12.3,18.3,25.9,18.3,40.7c0,23.9-12.8,42.7-38.5,56.4
			c-25.7,13.7-58.9,20.6-99.8,20.6c-34.4,0-64.5-5-90.3-15.1C377.8,2373,360.6,2348.4,352.2,2327z"/>
		<path class="st6" d="M884.6,2394.4h-37c-16.2,0-29.4-13.2-29.4-29.4v-73.3L714.2,2168c-3.6-4.3-3.1-10.7,1.2-14.4
			c1.8-1.5,4.2-2.4,6.6-2.4h53.8l82.3,100.3l78.8-100.3h60l-112.3,140.6V2394.4z"/>
		<path class="st6" d="M1358.1,2394.4h-60.8l-131.6-155.4l-9.9-11.6c-2-2.4-5.2-6.1-9.4-11.2v178.2H1096V2201
			c0-27.5,22.3-49.7,49.7-49.7l0,0c12.3,0,23.9,5.4,31.8,14.7l109.1,128.5c1,1.2,8.4,9.9,22.1,26.2v-169.4h49.3L1358.1,2394.4z"/>
		<path class="st6" d="M2098,2394.4h-213.5v-243.2h65.8v203.5H2098V2394.4z"/>
		<path class="st6" d="M2274.7,2394.4h-62.5v-210.6c0-18,14.6-32.6,32.6-32.6c0,0,0,0,0,0h29.8L2274.7,2394.4z"/>
		<path class="st6" d="M2647.8,2356.7v37.8h-256.4v-9.1c0-16.3,6.6-31.9,18.2-43.3L2569,2186h-130.4c-19.2,0-34.7-15.6-34.7-34.7
			h238.9v34.7l-175.6,170.7H2647.8z"/>
		<path class="st6" d="M1612.8,2192.9l50.6,108.5H1594l-14.5,35.1h100.7l27.7,57.9h66.8l-116.4-243.2h-47.8
			c-17.8,0-34.1,10.3-41.7,26.4l-102.6,216.8h53.4L1612.8,2192.9z"/>
	</g>
</g>
<g id="só_logo" class="st0">
	<rect class="st7" width="3000" height="3000"/>
	<g class="st3">
		<path class="st4" d="M794.9,1420.9c0,0,5,376.3,352,336.3c182-27,163-232,163-232s-11-201,173-334s523-159,563-218
			c23-36-30.6-60.4-30.6-60.4l-40-22.5l-25.9-15.7l-320.3-185.5c-79-45.6-172.3-44.6-251.3,1L922.5,954.1
			c-79,45.6-127.6,123.9-127.6,215.1l0,252.1"/>
		<path class="st4" d="M1344.9,2346.3c-69,37-144,27-174-5s19-88,19-166c0-112-80.7-151.6-80.7-151.6l18,10.4l-204.6-118.1
			c-47.1-27.2-82-63.7-103.7-111.6l0.6,0.9c0,0-27.6-55.9,31.4-31.9c36.5,14.8,216,144,376,56s157.7-413,512.3-516
			c-233.3,201-280.3,420-280.3,420s256.7-12.1,376.3-146.5c119.7-134.5,114.6-398.5,189.7-485.5c86.1-99.8,122.4-104.8,138.9-183.6
			c0.7-3.4,1.2-6.8,1.5-10.2l0.6-6.1c-0.1-2.5,0,2.6,0,0c0-128.1,103.9-232,232-232c127.8,0,232,104.2,232,232
			c0,128.1-103.9,232-232,232c-38.5,0-68-5.4-100-22l0,0c-85-37-82.5,40.4-82.5,40.4l-2.6-22.8c2.1,13.2,3.2,26.7,3.2,40.3v525.7
			c0,91.2-48.7,175.5-127.6,221.1"/>
	</g>
</g>
<g id="prototipo" class="st0">
	<rect class="st7" width="3000" height="3000"/>
	<g class="st3">
		<path class="st4" d="M794.9,1420.9c0,0,5,376.3,352,336.3c182-27,163-232,163-232s-11-201,173-334s523-159,563-218
			c23-36-30.6-60.4-30.6-60.4l-40-22.5l-25.9-15.7l-320.3-185.5c-79-45.6-172.3-44.6-251.3,1L922.5,954.1
			c-79,45.6-127.6,123.9-127.6,215.1l0,252.1"/>
	</g>
	<path class="st5" d="M2174.7,1012.6c-13.7-20.4-42.7-22.8-59.8-5.2c-21.4,22.2-50.5,48-90,93.8c-75,87-70,351-189.7,485.5
		c-119.7,134.5-376.3,146.5-376.3,146.5s47-219,280.3-420c-354.7,103-352.3,428-512.3,516s-339.5-41.2-376-56
		c-59-24-31.4,31.9-31.4,31.9l-0.6-0.9c21.6,48,56.6,84.4,103.7,111.6l192.5,111.2c18.6,11.7,74.8,54.8,74.8,148.2
		c0,78-49,134-19,166s105,42,174,5l743.5-430.4c79-45.6,127.6-129.9,127.6-221.1v-500.5C2216,1100.9,2196.8,1045.4,2174.7,1012.6z
		 M1109.2,2023.6c0,0,2.2,1.1,5.9,3.4L1109.2,2023.6z"/>
	<g>
		<circle class="st7" cx="1500" cy="1897" r="93"/>
		<path class="st7" d="M1161,1854c0,0,216-101,300,52l26-48c5.9-1.6-73-137-279-69L1161,1854"/>
	</g>
</g>
<g id="só_nome" class="st0">
	<rect class="st7" width="3000" height="3000"/>
	<g class="st3">
		<path class="st6" d="M352.2,1554.2l62.7-0.3c7.3,24.1,33.3,36.2,81.9,36.2c22.2,0,39.3-3.1,51.2-9.3c11.9-6.2,17.9-13.8,17.9-23
			c0-6.6-2.7-12.8-8.1-18.4c-5.4-5.7-17-10.1-34.8-13.3l-66.3-12.2c-22.7-4.2-39.5-8.9-50.3-14.2c-10.5-5-19.5-12.7-26.1-22.3
			c-6.3-9-9.8-19.8-9.8-30.8c0-21.7,11.5-39.2,34.6-52.3c23-13.1,52.5-19.7,88.4-19.7c29.8,0,56.5,4.6,79.9,13.7
			c23.5,9.2,38.4,32.9,44.9,49.6l-61.4-0.5c-9.2-18.4-28.5-27.6-62.1-27.6c-19.5,0-34.4,2.8-44.6,8.5c-10.3,5.7-15.4,12.9-15.4,21.7
			c0,13.9,16.1,23.6,48.3,29.2l59,10.3c35.7,6.3,59.7,15.6,71.9,27.9c12.2,12.3,18.3,25.9,18.3,40.7c0,23.9-12.8,42.7-38.5,56.4
			c-25.7,13.7-58.9,20.6-99.8,20.6c-34.4,0-64.5-5-90.3-15.1C377.8,1600.1,360.6,1575.5,352.2,1554.2z"/>
		<path class="st6" d="M884.6,1621.6h-37c-16.2,0-29.4-13.2-29.4-29.4V1519l-104.1-123.8c-3.6-4.3-3.1-10.7,1.2-14.4
			c1.8-1.5,4.2-2.4,6.6-2.4h53.8l82.3,100.3l78.8-100.3h60L884.6,1519V1621.6z"/>
		<path class="st6" d="M1358.1,1621.6h-60.8l-131.6-155.4l-9.9-11.6c-2-2.4-5.2-6.1-9.4-11.2v178.2H1096v-193.4
			c0-27.5,22.3-49.7,49.7-49.7l0,0c12.3,0,23.9,5.4,31.8,14.7l109.1,128.5c1,1.2,8.4,9.9,22.1,26.2v-169.4h49.3L1358.1,1621.6z"/>
		<path class="st6" d="M2098,1621.6h-213.5v-243.2h65.8v203.5H2098V1621.6z"/>
		<path class="st6" d="M2274.7,1621.6h-62.5V1411c0-18,14.6-32.6,32.6-32.6c0,0,0,0,0,0h29.8L2274.7,1621.6z"/>
		<path class="st6" d="M2647.8,1583.8v37.8h-256.4v-9.1c0-16.3,6.6-31.9,18.2-43.3l159.4-156.1h-130.4c-19.2,0-34.7-15.6-34.7-34.7
			h238.9v34.7l-175.6,170.7H2647.8z"/>
		<path class="st6" d="M1612.8,1420.1l50.6,108.5H1594l-14.5,35.1h100.7l27.7,57.9h66.8l-116.4-243.2h-47.8
			c-17.8,0-34.1,10.3-41.7,26.4l-102.6,216.8h53.4L1612.8,1420.1z"/>
	</g>
</g>
<g id="so_logo_bw" class="st0">
	<rect class="st3" width="3000" height="3000"/>
	<g class="st3">
		<path class="st12" d="M794.9,1420.9c0,0,5,376.3,352,336.3c182-27,163-232,163-232s-11-201,173-334s523-159,563-218
			c23-36-30.6-60.4-30.6-60.4l-40-22.5l-25.9-15.7l-320.3-185.5c-79-45.6-172.3-44.6-251.3,1L922.5,954.1
			c-79,45.6-127.6,123.9-127.6,215.1l0,252.1"/>
		<path class="st12" d="M1344.9,2346.3c-69,37-144,27-174-5s19-88,19-166c0-112-80.7-151.6-80.7-151.6l18,10.4l-204.6-118.1
			c-47.1-27.2-82-63.7-103.7-111.6l0.6,0.9c0,0-27.6-55.9,31.4-31.9c36.5,14.8,216,144,376,56s157.7-413,512.3-516
			c-233.3,201-280.3,420-280.3,420s256.7-12.1,376.3-146.5c119.7-134.5,114.6-398.5,189.7-485.5c86.1-99.8,122.4-104.8,138.9-183.6
			c0.7-3.4,1.2-6.8,1.5-10.2l0.6-6.1c-0.1-2.5,0,2.6,0,0c0-128.1,103.9-232,232-232c127.8,0,232,104.2,232,232
			c0,128.1-103.9,232-232,232c-38.5,0-68-5.4-100-22l0,0c-85-37-82.5,40.4-82.5,40.4l-2.6-22.8c2.1,13.2,3.2,26.7,3.2,40.3v525.7
			c0,91.2-48.7,175.5-127.6,221.1"/>
	</g>
</g>
<g id="logo__x2B__nome_bw" class="st0">
	<rect class="st3" width="3000" height="3000"/>
	<g class="st3">
		<path class="st12" d="M789.5,1131.7c0,0,5,376.3,352,336.3c182-27,163-232,163-232s-11-201,173-334s523-159,563-218
			c23-36-30.6-66.4-30.6-66.4l-56-33.5l2.1,1.3l-328.3-189.5c-79-45.6-176.3-45.6-255.3,0L917.2,658.8
			c-79,45.6-127.6,129.9-127.6,221.1l0,252.1"/>
		<path class="st12" d="M1627.7,1874.5L1331.5,2035c-69,37-136,49-166,17s19-88,19-166c0-112-80.7-151.6-80.7-151.6l18,10.4
			l-204.6-118.1c-47.1-27.2-82-63.7-103.7-111.6l0.6,0.9c0,0-27.6-55.9,31.4-31.9c36.5,14.8,216,144,376,56s157.7-413,512.3-516
			c-233.3,201-280.3,420-280.3,420s256.7-12.1,376.3-146.5C1949.5,1163,1944.5,899,2019.5,812c86.1-99.8,122.4-104.8,138.9-183.6
			c0.7-3.4,1.2-6.8,1.5-10.2l0.6-6.1c-0.1-2.5,0,2.6,0,0c0-128.1,103.9-232,232-232c127.8,0,232,104.2,232,232
			c0,128.1-103.9,232-232,232c-38.5,0-68-5.4-100-22l0,0c-85-37-82.5,40.4-82.5,40.4l-2.6-22.8c2.1,13.2,3.2,26.7,3.2,40.3v525.7
			c0,91.2-48.7,175.5-127.6,221.1L1627.7,1874.5c-13.2,7.5-15.2,8.5-37.8,20.9"/>
	</g>
	<g class="st3">
		<path class="st12" d="M352.2,2327l62.7-0.3c7.3,24.1,33.3,36.2,81.9,36.2c22.2,0,39.3-3.1,51.2-9.3c11.9-6.2,17.9-13.8,17.9-23
			c0-6.6-2.7-12.8-8.1-18.4c-5.4-5.7-17-10.1-34.8-13.3l-66.3-12.2c-22.7-4.2-39.5-8.9-50.3-14.2c-10.5-5-19.5-12.7-26.1-22.3
			c-6.3-9-9.8-19.8-9.8-30.8c0-21.7,11.5-39.2,34.6-52.3c23-13.1,52.5-19.7,88.4-19.7c29.8,0,56.5,4.6,79.9,13.7
			c23.5,9.2,38.4,32.9,44.9,49.6l-61.4-0.5c-9.2-18.4-28.5-27.6-62.1-27.6c-19.5,0-34.4,2.8-44.6,8.5c-10.3,5.7-15.4,12.9-15.4,21.7
			c0,13.9,16.1,23.6,48.3,29.2l59,10.3c35.7,6.3,59.7,15.6,71.9,27.9c12.2,12.3,18.3,25.9,18.3,40.7c0,23.9-12.8,42.7-38.5,56.4
			c-25.7,13.7-58.9,20.6-99.8,20.6c-34.4,0-64.5-5-90.3-15.1C377.8,2373,360.6,2348.4,352.2,2327z"/>
		<path class="st12" d="M884.6,2394.4h-37c-16.2,0-29.4-13.2-29.4-29.4v-73.3L714.2,2168c-3.6-4.3-3.1-10.7,1.2-14.4
			c1.8-1.5,4.2-2.4,6.6-2.4h53.8l82.3,100.3l78.8-100.3h60l-112.3,140.6V2394.4z"/>
		<path class="st12" d="M1358.1,2394.4h-60.8l-131.6-155.4l-9.9-11.6c-2-2.4-5.2-6.1-9.4-11.2v178.2H1096V2201
			c0-27.5,22.3-49.7,49.7-49.7l0,0c12.3,0,23.9,5.4,31.8,14.7l109.1,128.5c1,1.2,8.4,9.9,22.1,26.2v-169.4h49.3L1358.1,2394.4z"/>
		<path class="st12" d="M2098,2394.4h-213.5v-243.2h65.8v203.5H2098V2394.4z"/>
		<path class="st12" d="M2274.7,2394.4h-62.5v-210.6c0-18,14.6-32.6,32.6-32.6c0,0,0,0,0,0h29.8L2274.7,2394.4z"/>
		<path class="st12" d="M2647.8,2356.7v37.8h-256.4v-9.1c0-16.3,6.6-31.9,18.2-43.3L2569,2186h-130.4c-19.2,0-34.7-15.6-34.7-34.7
			h238.9v34.7l-175.6,170.7H2647.8z"/>
		<path class="st12" d="M1612.8,2192.9l50.6,108.5H1594l-14.5,35.1h100.7l27.7,57.9h66.8l-116.4-243.2h-47.8
			c-17.8,0-34.1,10.3-41.7,26.4l-102.6,216.8h53.4L1612.8,2192.9z"/>
	</g>
</g>
</svg>
